# xmcd CD database file
#
# Track frame offsets:
#	150
#	15455
#	34898
#	48683
#	61588
#	76440
#	89180
#	99539
#	111417
#	122535
#	135009
#	147118
#	159136
#	171152
#	187030
#	201443
#	218326
#	225239
#	241123
#	252761
#	264150
#	273862
#
# Disc length: 3827 seconds
#
# Revision: 0
# Processed by: cddbd v1.4PL0 Copyright (c) Steve Scherf et al.
# Submitted via: CDex 1.50
#
DISCID=1c0ef116
DTITLE=Ray Starr - Ray Starr Covers Country
DYEAR=2001
DGENRE=Country
TTITLE0=Pop a Top Again
TTITLE1=I Can't Stop Lovin' You
TTITLE2=I've Enjoyed as Much of This as I Can Stand
TTITLE3=Pass Me By
TTITLE4=You Win Again
TTITLE5=Hey Mister - I'm In Love With Your Wife
TTITLE6=Your Mama Don't dance...
TTITLE7=World's Greatest Fool
TTITLE8=I Ain't Never Seen Nobody Like You
TTITLE9=Let Me In
TTITLE10=I'm Leavin' It Up To You
TTITLE11=These Arms of Mine
TTITLE12=Stay Out of My Heart
TTITLE13=I Wanna Take Love Lessons From You
TTITLE14=What's Goin on in Your World
TTITLE15=Write This Down
TTITLE16=Guitar Instrumental
TTITLE17=That's Where I Draw The Line
TTITLE18=Guitar Instrumental
TTITLE19=I Feel You in His Arms
TTITLE20=I'm Gonna Change Everything...
TTITLE21=Fool Number One
EXTD=YEAR: 2001
EXTT0=
EXTT1=
EXTT2=
EXTT3=
EXTT4=
EXTT5=
EXTT6=
EXTT7=
EXTT8=
EXTT9=
EXTT10=
EXTT11=
EXTT12=
EXTT13=
EXTT14=
EXTT15=
EXTT16=
EXTT17=
EXTT18=
EXTT19=
EXTT20=
EXTT21=
PLAYORDER=
